<svg xmlns="http://www.w3.org/2000/svg" viewBox="0 0 200 200" width="200" height="200">
  <defs>
    <linearGradient id="logoGradient" x1="0%" y1="0%" x2="100%" y2="100%">
      <stop offset="0%" style="stop-color:#667eea;stop-opacity:1" />
      <stop offset="100%" style="stop-color:#764ba2;stop-opacity:1" />
    </linearGradient>
    <filter id="glow">
      <feGaussianBlur stdDeviation="3" result="coloredBlur"/>
      <feMerge> 
        <feMergeNode in="coloredBlur"/>
        <feMergeNode in="SourceGraphic"/>
      </feMerge>
    </filter>
  </defs>
  
  <!-- Background Circle -->
  <circle cx="100" cy="100" r="95" fill="url(#logoGradient)" opacity="0.1" />
  
  <!-- Main Logo Shape - Abstract "E" with modern twist -->
  <g filter="url(#glow)">
    <!-- Main E shape -->
    <path d="M50 60 L50 140 L130 140 L130 125 L70 125 L70 105 L120 105 L120 90 L70 90 L70 75 L130 75 L130 60 Z" 
          fill="url(#logoGradient)" stroke="none"/>
    
    <!-- Decorative elements -->
    <circle cx="145" cy="70" r="8" fill="url(#logoGradient)" opacity="0.8"/>
    <circle cx="145" cy="95" r="6" fill="url(#logoGradient)" opacity="0.6"/>
    <circle cx="145" cy="115" r="4" fill="url(#logoGradient)" opacity="0.4"/>
    
    <!-- Connecting lines -->
    <path d="M135 75 L140 70" stroke="url(#logoGradient)" stroke-width="3" stroke-linecap="round"/>
    <path d="M125 95 L140 95" stroke="url(#logoGradient)" stroke-width="2" stroke-linecap="round"/>
    <path d="M135 115 L140 115" stroke="url(#logoGradient)" stroke-width="2" stroke-linecap="round"/>
  </g>
  
  <!-- Subtle geometric pattern in background -->
  <g opacity="0.1">
    <path d="M20 20 L40 40 M160 20 L180 40 M20 160 L40 180 M160 160 L180 180" 
          stroke="url(#logoGradient)" stroke-width="2"/>
  </g>
</svg>